<?xml version="1.0" standalone="no"?>
<!DOCTYPE svg PUBLIC "-//W3C//DTD SVG 20010904//EN"
 "http://www.w3.org/TR/2001/REC-SVG-20010904/DTD/svg10.dtd">
<svg version="1.0" xmlns="http://www.w3.org/2000/svg"
 width="643.000000pt" height="643.000000pt" viewBox="0 0 643.000000 643.000000"
 preserveAspectRatio="xMidYMid meet">
<metadata>
Created by potrace 1.14, written by Peter Selinger 2001-2017
</metadata>
<g transform="translate(0.000000,643.000000) scale(0.100000,-0.100000)"
fill="#000000" stroke="none">
<path d="M952 6419 c-30 -5 -88 -21 -130 -35 -227 -75 -393 -247 -474 -489
l-23 -70 0 -1285 0 -1285 23 -90 c51 -196 163 -372 307 -482 206 -157 471
-236 790 -236 201 0 274 15 400 81 280 148 482 390 556 667 32 117 32 325 0
450 -78 306 -228 501 -476 621 -149 72 -221 87 -425 88 -207 1 -233 -5 -422
-96 -70 -34 -130 -59 -134 -56 -8 9 40 107 95 190 107 164 288 328 480 436
381 213 876 267 1243 136 112 -40 293 -137 391 -209 220 -163 429 -408 545
-640 42 -82 242 -626 351 -953 101 -302 113 -374 74 -443 -28 -47 -50 -54
-168 -54 -100 0 -115 -3 -161 -27 -62 -32 -156 -132 -207 -219 -45 -78 -89
-188 -122 -312 -40 -145 -44 -156 -101 -275 -101 -213 -202 -334 -331 -395
-60 -28 -80 -32 -175 -35 -146 -6 -247 17 -593 135 -581 196 -708 231 -940
253 -195 19 -399 -5 -545 -64 -236 -96 -402 -306 -466 -591 -22 -98 -25 -314
-6 -395 95 -392 290 -616 608 -701 121 -33 325 -37 480 -11 251 43 120 -27
2284 1226 1263 732 1989 1157 2032 1192 283 232 438 527 414 790 -19 208 -115
398 -298 589 -152 160 -126 142 -1198 787 -1206 724 -2439 1437 -2818 1627
-307 155 -620 220 -860 180z m639 -2771 c246 -129 157 -499 -121 -502 -150 -2
-267 111 -269 259 -1 69 14 117 52 166 58 77 122 108 219 109 45 0 69 -7 119
-32z"/>
<path d="M3120 3669 c-114 -46 -136 -208 -38 -282 41 -32 104 -43 151 -28 45
15 93 68 106 118 34 122 -100 239 -219 192z"/>
</g>
</svg>
